<?xml version="1.0" encoding="UTF-8" standalone="no"?>
<svg width="240" height="240" viewBox="0 0 240 240" fill="none" xmlns="http://www.w3.org/2000/svg">
  <!-- Store Building Background -->
  <rect x="40" y="60" width="160" height="140" rx="5" fill="#F0F4F8" />
  
  <!-- Store Building Outline -->
  <rect x="40" y="60" width="160" height="140" rx="5" stroke="#2A4365" stroke-width="4" fill="none" />
  
  <!-- Store Roof -->
  <path d="M30 65L120 25L210 65" stroke="#2A4365" stroke-width="6" fill="none" />
  
  <!-- Store Window Left -->
  <rect x="60" y="85" width="40" height="40" rx="3" fill="#90CDF4" stroke="#2A4365" stroke-width="2" />
  <line x1="80" y1="85" x2="80" y2="125" stroke="#2A4365" stroke-width="2" />
  <line x1="60" y1="105" x2="100" y2="105" stroke="#2A4365" stroke-width="2" />
  
  <!-- Store Window Right -->
  <rect x="140" y="85" width="40" height="40" rx="3" fill="#90CDF4" stroke="#2A4365" stroke-width="2" />
  <line x1="160" y1="85" x2="160" y2="125" stroke="#2A4365" stroke-width="2" />
  <line x1="140" y1="105" x2="180" y2="105" stroke="#2A4365" stroke-width="2" />
  
  <!-- Store Door -->
  <rect x="100" y="130" width="40" height="70" rx="3" fill="#4299E1" stroke="#2A4365" stroke-width="3" />
  <circle cx="130" cy="165" r="4" fill="#ECC94B" />
  
  <!-- Store Sign -->
  <rect x="70" y="40" width="100" height="20" rx="3" fill="#4299E1" stroke="#2A4365" stroke-width="2" />
  <text x="120" y="55" font-family="Arial" font-size="14" text-anchor="middle" fill="#ffffff">LOJA</text>
  
  <!-- Shopping Bag -->
  <path d="M190 150C190 145 186 140 180 140L180 160C186 160 190 155 190 150Z" fill="#E53E3E" />
  <rect x="160" y="140" width="20" height="20" fill="#E53E3E" />
  <path d="M160 150C160 145 164 140 170 140L170 160C164 160 160 155 160 150Z" fill="#E53E3E" />
  <path d="M165 140C165 130 175 130 175 130L175 140L165 140Z" fill="#E53E3E" stroke="#2A4365" stroke-width="2" />
</svg>